<svg width="200" height="200" xmlns="http://www.w3.org/2000/svg">
	<use href="container-with-litter.svg" width="200" height="200"/>
	<g transform="translate(15,-15)">
	<path fill="#2a2c30" d="m 93,117 -5,6 -5,19 -2,10 0,9 2,12 -5,3 -7,10 3,1 18,-2 23,4 28,-1 20,-3 9,2 5,0 -3,-5 -6,-5 -1,-3 2,-15 -1,-18 -3,-13 -7,-12 -12,-9 -10,-4 -1,-5 7,-6 -4,-5 -5,-3 -3,0 -4,2 -7,0 -5,4 2,4 6,6 -1,3 -12,4 z" />
	<path fill="#3d3f43" d="m 124,103 6,-1 3,-2 -1,-2 -4,1 -3,0 -6,0 5,1 5,-1 -3,1 -6,2 z" />
	<path fill="#3d3f43" d="m 102,115 5,4 2,-5 4,-4 -5,3 6,-6 c -4,3 -8,5 -12,8 z" />
	<path fill="#3d3f43" d="m 112,123 3,4 4,-1 1,-12 -4,9 1,-5 c 0,-1 1,-3 1,-4 -3,3 -4,6 -5,9 z" />
	<path fill="#3d3f43" d="m 153,132 c 1,3 0,4 -1,6 l -10,7 6,-1 8,-3 2,5 4,3 3,-13 0,-7 -2,3 -3,2 4,-8 c 0,-3 -3,-5 -4,-8 l -7,-5 c 0,0 -3,1 -3,2 l 5,10 z" />
	<path fill="#3d3f43" d="m 143,171 -12,-2 -6,4 -13,2 -10,-5 -16,1 -8,11 -3,3 19,-2 4,-1 8,3 -1,-8 12,7 5,1 10,-1 11,-3 4,-4 -1,7 10,-4 11,1 8,3 -6,-6 -1,-2 -2,-4 -6,-2 3,-2 0,-3 -7,3 z" />
	<path fill="#54585e" d="M128,105 L146,118 L135,105 L152,111 L159,121 L151,117 L153,132 L147,125 L147,137 L146,132 L136,138 L150,153 L124,170 L144,165 L154,155 L151,168 L118,177 L96,175 L84,158 L91,147 L104,152 L90,138 L94,121 L120,108 L115,129 L126,109 L133,122 L128,108" />
	<path fill="#54585e" d="m 89,180 1,-5 -4,-3 1,6 z" />
	<path fill="#54585e" d="m 129,89 -1,4 1,2 1,-2 2,-6 -6,4 z" />
	<path fill="#54585e" d="m 166,173 -5,1 -1,4 5,0 3,-2 -1,-2 -4,3 c 1,-1 2,-2 3,-4 z" />
	<path fill="#54585e" d="m 171,182 1,2 4,2 -3,-4 -3,-2 -3,-1 -3,2 3,1 z" />
	<path fill="#6e747a" d="m 113,90 3,0 4,-2 3,1 c 2,0 3,0 4,-1 l 2,-2 -3,0 -5,2 -4,-1 -3,1 z" />
	<path fill="#6e747a" d="m 97,168 5,1 -9,-6 -6,-5 5,9 z" />
	<path fill="#6e747a" d="m 83,177 -4,6 4,-3 5,1 -2,-1 z" />
	<path fill="#6e747a" d="m 150,130 -1,-4 -2,-2 -1,12 z" />
	<path fill="#6e747a" d="m 156,133 1,-5 -4,7 -5,4 -3,3 6,-4 2,-2 z" />
	<path fill="#6e747a" d="m 121,167 -2,1 15,-4 3,-2 3,-3 6,-7 -15,9 z" />
	<path fill="#6e747a" d="m 168,181 1,-1 4,3 -3,-4 -5,1 z" />
	<path fill="#6e747a" d="M105,112 L100,118 L100,122 L115,110 L107,127 L110,140 L98,131 L95,131 L93,134 L96,121 L93,124 L95,119 L105,110 L111,108 M107,147 L128,150 L133,152 L115,150 L117,152 L112,159 L111,171 L108,167 L106,148 L108,147 M126,112 L135,124 L121,133 L116,140 L118,128 L123,115 L123,124 L125,129 L127,112" />
	</g>
</svg>
